<svg width="70" height="70" viewBox="0 0 70 70" fill="none" xmlns="http://www.w3.org/2000/svg">
<rect width="70" height="70" rx="20" fill="#7C3BED"/>
<path d="M15.1372 48.3097L14.8205 42.2149C14.7226 40.2451 14.3905 38.7336 13.8215 37.6883C13.2576 36.6429 12.3512 35.7365 11.1075 34.9847C12.4285 34.1479 13.3168 33.2724 13.8009 32.3583C14.2849 31.4468 14.5939 30.4838 14.7253 29.4848C14.8592 28.478 14.9647 26.3023 15.0522 22.9523C15.0805 21.7421 15.2994 20.9284 15.6908 20.5062C16.0874 20.0865 17.3002 19.8804 19.3292 19.8804V14.8773H18.2168C16.2676 14.8773 14.7664 15.0498 13.7082 15.3923C12.6448 15.7347 11.7796 16.2909 11.1076 17.0557C10.4382 17.823 10.0108 18.7783 9.84341 19.9112C9.66579 21.0468 9.57817 22.7951 9.57817 25.1512C9.57817 28.2437 9.19714 30.2392 8.42972 31.1224C7.65979 32.0056 6.52172 32.4587 5 32.4716V37.4978C6.5475 37.5519 7.60058 37.9124 8.16197 38.5741C8.71561 39.2384 9.0915 39.9672 9.28977 40.7654C9.48291 41.5636 9.57817 43.3866 9.57817 46.2344C9.57817 48.8145 9.84854 50.6889 10.397 51.8476C10.9378 53.0115 11.8184 53.8431 13.0312 54.3582C14.2465 54.8603 15.9717 55.123 18.2093 55.123H19.2959V50.0942C17.5939 50.0942 16.5098 49.9423 16.0335 49.6462C15.562 49.3396 15.2634 48.8967 15.1372 48.3097Z" fill="white"/>
<path d="M64.9974 37.4977V32.4664C63.4781 32.4097 62.4456 32.0647 61.8921 31.4313C61.3436 30.798 60.9625 30.095 60.7463 29.3328C60.5274 28.5655 60.4192 26.7013 60.4192 23.7453C60.4192 21.1678 60.1514 19.2984 59.6056 18.1423C59.0623 16.9862 58.1791 16.1519 56.9637 15.6421C55.7458 15.1374 54.0231 14.8773 51.7856 14.8773H50.6707V19.8726C52.4293 19.8726 53.5159 19.9961 53.9433 20.2485C54.3656 20.5008 54.636 20.7995 54.7466 21.1497C54.8599 21.4973 54.9552 22.8723 55.0402 25.2799C55.1252 27.6899 55.2513 29.3327 55.4161 30.2185C55.5809 31.1069 55.9027 31.9283 56.3791 32.6775C56.8503 33.4346 57.6898 34.1968 58.8871 34.9821C57.7593 35.6361 56.9301 36.406 56.4074 37.2866C55.8822 38.1672 55.5346 39.1123 55.3569 40.1293C55.1869 41.1438 55.0582 43.4355 54.9758 47.0094C54.95 48.2531 54.7106 49.0796 54.2755 49.4813C53.8378 49.8881 52.6481 50.089 50.7041 50.089V55.1178H51.8112C53.7579 55.1178 55.2565 54.9427 56.3198 54.6028C57.3781 54.2577 58.2485 53.7042 58.9179 52.9369C59.5848 52.1696 60.0045 51.2143 60.1667 50.0813C60.3418 48.9406 60.4217 47.1846 60.4217 44.8106C60.4217 41.7336 60.8053 39.7509 61.5753 38.86C62.3374 37.9639 63.4806 37.5133 64.9999 37.4979C64.9999 37.4977 64.9974 37.4977 64.9974 37.4977Z" fill="white"/>
<path d="M52.522 34.9176C52.4035 34.9074 52.3005 34.8816 52.1897 34.8687C52.2953 34.848 52.3983 34.8249 52.5168 34.8172H51.8421C47.0374 34.2431 42.812 32.5565 39.6809 30.1799C37.3043 27.0513 35.6177 22.8285 35.0462 18.0161V17.3492C35.0359 17.4625 35.0024 17.5706 34.9947 17.6814C34.9793 17.5706 34.9509 17.4625 34.9407 17.3492V18.0161C34.369 22.8286 32.6824 27.0488 30.3059 30.1799C27.1877 32.5539 22.9649 34.2431 18.155 34.8172H17.488C17.6065 34.825 17.7095 34.8507 17.8202 34.8687C17.7095 34.8816 17.6066 34.9047 17.488 34.915H18.1575C22.9648 35.4892 27.1876 37.1757 30.3161 39.5497C32.6927 42.6834 34.3793 46.9036 34.9508 51.7161V52.383C34.9611 52.2697 34.9895 52.1616 35.0049 52.0483C35.0151 52.1591 35.0461 52.2671 35.0563 52.383V51.7161C35.628 46.9062 37.3146 42.6834 39.6911 39.5497C42.8221 37.1757 47.0424 35.4892 51.8523 34.9201L52.522 34.9176ZM36.3878 36.2617C35.7389 36.8719 35.26 37.6419 35.0025 38.5199C34.745 37.6419 34.261 36.8721 33.6095 36.2617C33.0017 35.6103 32.2293 35.1262 31.341 34.8687C32.2293 34.6112 33.0017 34.1245 33.6095 33.4731C34.2608 32.8603 34.745 32.0879 35.0025 31.2149C35.26 32.0904 35.7389 32.8628 36.3878 33.4731C36.998 34.1245 37.773 34.6112 38.6511 34.8687C37.773 35.1262 36.998 35.6103 36.3878 36.2617Z" fill="white"/>
</svg>
